<?xml version="1.0" encoding="UTF-8"?>
<svg xmlns="http://www.w3.org/2000/svg" xmlns:xlink="http://www.w3.org/1999/xlink" width="3750" height="3375" viewBox="0 0 3750 3375">
<rect x="-375" y="-337.5" width="4500" height="4050" fill="rgb(100%, 100%, 100%)" fill-opacity="1"/>
<path fill-rule="nonzero" fill="rgb(44.309998%, 81.25%, 100%)" fill-opacity="1" d="M 822.339844 3007.527344 C 1330.429688 3048.171875 2262.03125 3076.511719 2768.648438 3037.558594 C 3275.269531 2998.601562 3356.929688 2892.359375 3437.238281 2469.480469 C 3517.558594 2046.609375 3596.53125 1307.121094 3547.230469 889.589844 C 3497.921875 472.050781 3320.351562 376.480469 2765.921875 338.160156 C 2211.488281 299.839844 1280.28125 318.789062 793.578125 393.699219 C 306.882812 468.609375 264.761719 599.46875 230.773438 1020.019531 C 196.785156 1440.570312 170.929688 2150.761719 200.296875 2532.34375 C 229.664062 2913.925781 314.25 2966.878906 822.339844 3007.527344 Z M 822.339844 3007.527344 "/>
<path fill-rule="nonzero" fill="rgb(100%, 100%, 100%)" fill-opacity="1" d="M 1152.871094 804.210938 C 1076.828125 800.238281 1001.800781 838.101562 957.914062 894.46875 C 909.488281 956.671875 898.988281 1041.410156 938.371094 1114.75 C 977.75 1188.078125 1066.570312 1249.699219 1149.800781 1258.398438 C 1215.03125 1265.21875 1276.289062 1239.148438 1321.109375 1199.089844 C 1400.808594 1233.238281 1500.671875 1189.679688 1500.671875 1189.679688 C 1435.390625 1185.179688 1395.390625 1157.371094 1372.871094 1133.871094 C 1401.230469 1080.691406 1405.140625 1019.320312 1376.058594 959.828125 C 1341.46875 889.089844 1260.25 821.019531 1176.460938 806.820312 C 1168.609375 805.480469 1160.730469 804.621094 1152.871094 804.210938 Z M 1152.871094 804.210938 "/>
<path fill-rule="nonzero" fill="rgb(100%, 100%, 100%)" fill-opacity="1" d="M 2006.03125 1255.121094 C 1855.351562 1244.308594 1725.558594 1310.039062 1725.558594 1310.039062 C 1725.558594 1310.039062 1526.539062 1409.820312 1512.019531 1433.210938 C 1497.480469 1456.609375 1483.308594 1489 1483.308594 1489 C 1483.308594 1489 1134.011719 1628.5 1113.691406 1682.75 C 1093.378906 1737 1020.390625 2073.949219 1040.410156 2203.738281 C 1060.441406 2333.53125 1204.53125 2645.871094 1230.191406 2664.214844 C 1255.839844 2682.554688 1346.179688 2724.003906 1346.179688 2724.003906 L 1272.648438 3034.984375 C 1680.859375 3053.929688 2167.078125 3063 2538.359375 3049.8125 L 2523.960938 2759.070312 C 2523.960938 2759.070312 2807.449219 2556.058594 2838.828125 2441.070312 C 2870.210938 2326.078125 2706.699219 1725.378906 2659.449219 1646.128906 C 2612.210938 1566.890625 2321.699219 1447.558594 2321.699219 1447.558594 C 2321.699219 1447.558594 2363.019531 1400.269531 2159.648438 1296.71875 C 2108.808594 1270.839844 2056.261719 1258.730469 2006.03125 1255.121094 Z M 2006.03125 1255.121094 "/>
<path fill-rule="nonzero" fill="rgb(92.576599%, 92.576599%, 92.576599%)" fill-opacity="1" d="M 2466.878906 2021.03125 C 2466.878906 2021.03125 2406.089844 2170.441406 2340.828125 2174.519531 C 2275.570312 2178.609375 2209.609375 2118.171875 2092.621094 2166.351562 L 2181.101562 2322.300781 L 2351.558594 2383.800781 L 2497.789062 2393.585938 Z M 2466.878906 2021.03125 "/>
<path fill-rule="nonzero" fill="rgb(44.309998%, 81.25%, 100%)" fill-opacity="1" d="M 2092.621094 2166.351562 L 2183.21875 2190.558594 L 2180.308594 2371.96875 L 2113.320312 2367.339844 C 2113.320312 2367.339844 2114.878906 2287.671875 2092.621094 2166.351562 Z M 2092.621094 2166.351562 "/>
<path fill-rule="nonzero" fill="rgb(44.309998%, 81.25%, 100%)" fill-opacity="1" d="M 2133.46875 1256.449219 L 1752 1257.238281 L 1699.140625 1362.839844 C 1699.140625 1362.839844 1767.488281 1830.519531 1856.371094 2228.128906 L 2084.359375 2121.230469 C 2140.679688 1776.269531 2198.660156 1390.738281 2185.820312 1337 Z M 2133.46875 1256.449219 "/>
<path fill-rule="nonzero" fill="rgb(32.93457%, 68.554688%, 86.71875%)" fill-opacity="1" d="M 2133.480469 1256.449219 L 1752 1257.238281 L 1699.140625 1362.839844 C 1699.140625 1362.839844 1709.410156 1432.96875 1727.039062 1541.441406 L 1769.789062 1552.761719 L 1730.441406 1450.148438 C 1730.441406 1450.148438 1753.570312 1340.640625 1786.511719 1342.910156 C 1819.449219 1345.191406 2150.191406 1369.160156 2150.191406 1369.160156 L 2184.730469 1417.171875 C 2188.03125 1376.949219 2188.660156 1348.859375 2185.820312 1337 Z M 2133.480469 1256.449219 "/>
<path fill-rule="nonzero" fill="rgb(32.93457%, 68.554688%, 86.71875%)" fill-opacity="1" d="M 1974.988281 1882.308594 C 1935.550781 1881.160156 2081.089844 2118.359375 1990.929688 2083.558594 C 1925.21875 2058.191406 1857.640625 2032.949219 1811.890625 2015.929688 C 1825.929688 2086.890625 1840.820312 2158.578125 1856.371094 2228.128906 L 2084.359375 2121.230469 C 2093.179688 2067.199219 2102.019531 2012.230469 2110.640625 1957.640625 C 2064.46875 1930.359375 2015.640625 1901.960938 1985.46875 1885.859375 C 1981.070312 1883.519531 1977.628906 1882.390625 1974.988281 1882.308594 Z M 1974.988281 1882.308594 "/>
<path fill-rule="nonzero" fill="rgb(0%, 0%, 0%)" fill-opacity="1" d="M 1783.339844 1165.570312 C 1778.429688 1165.589844 1773.71875 1167.550781 1770.238281 1171.03125 C 1770.238281 1171.03125 1654.410156 1287.648438 1670.78125 1469.960938 C 1671.691406 1480.171875 1680.710938 1487.710938 1690.929688 1486.808594 C 1695.839844 1486.359375 1700.378906 1483.988281 1703.539062 1480.210938 C 1706.691406 1476.421875 1708.21875 1471.53125 1707.769531 1466.621094 C 1692.921875 1301.148438 1796.570312 1197.25 1796.570312 1197.25 C 1800.058594 1193.761719 1802.011719 1189.019531 1801.988281 1184.089844 C 1801.980469 1179.160156 1800 1174.429688 1796.5 1170.960938 C 1793 1167.488281 1788.269531 1165.558594 1783.339844 1165.570312 Z M 1783.339844 1165.570312 "/>
<path fill-rule="nonzero" fill="rgb(0%, 0%, 0%)" fill-opacity="1" d="M 2111.949219 1196.070312 C 2102.488281 1192.089844 2091.601562 1196.53125 2087.621094 1205.980469 C 2085.71875 1210.53125 2085.691406 1215.648438 2087.558594 1220.210938 C 2089.429688 1224.769531 2093.03125 1228.410156 2097.578125 1230.308594 C 2097.578125 1230.308594 2118.230469 1238.371094 2141.058594 1270.949219 C 2163.898438 1303.539062 2187.210938 1360.058594 2183.519531 1456.949219 C 2183.128906 1467.191406 2191.109375 1475.820312 2201.351562 1476.21875 C 2206.28125 1476.410156 2211.078125 1474.628906 2214.691406 1471.28125 C 2218.308594 1467.929688 2220.441406 1463.28125 2220.628906 1458.351562 C 2224.570312 1354.878906 2199.210938 1289.191406 2171.480469 1249.640625 C 2143.75 1210.078125 2111.949219 1196.070312 2111.949219 1196.070312 Z M 2111.949219 1196.070312 "/>
<path fill-rule="nonzero" fill="rgb(98.826599%, 75.78125%, 64.256287%)" fill-opacity="1" d="M 1758.558594 1117.390625 L 1745.441406 1397.109375 L 1957.839844 1515.339844 L 1986.910156 1647.828125 L 2020.949219 1530.058594 L 2150.199219 1369.160156 L 2106.390625 1073.960938 Z M 1758.558594 1117.390625 "/>
<path fill-rule="nonzero" fill="rgb(74.021912%, 36.473083%, 35.301208%)" fill-opacity="1" d="M 2106.398438 1073.960938 L 1758.558594 1117.378906 L 1751.570312 1266.28125 C 1834.890625 1328.328125 1985.679688 1412.578125 2150.191406 1369.160156 Z M 2106.398438 1073.960938 "/>
<path fill-rule="nonzero" fill="rgb(10.205078%, 10.205078%, 10.205078%)" fill-opacity="1" d="M 1627.371094 947.808594 L 1553.949219 676.601562 C 1553.949219 676.601562 1605.148438 505.128906 1713.109375 531.230469 L 1767.359375 435.570312 C 1767.359375 435.570312 2165.339844 340.878906 2274.980469 582.488281 L 2189.550781 560.019531 C 2189.550781 560.019531 2256.351562 612.269531 2275.601562 723.371094 L 2248.449219 696.640625 L 2239.410156 854.660156 C 2239.410156 854.660156 2023.441406 1240.28125 1627.371094 947.808594 Z M 1627.371094 947.808594 "/>
<path fill-rule="nonzero" fill="rgb(98.826599%, 75.78125%, 64.256287%)" fill-opacity="1" d="M 1671.910156 917.75 C 1671.910156 917.75 1613.488281 864.011719 1589.03125 918.230469 C 1564.570312 972.460938 1643.671875 1056.628906 1697.261719 1060.339844 L 1745.078125 1177.550781 L 1926.019531 1316.390625 L 2049.769531 1293.871094 L 2192.671875 1084.21875 L 2197.660156 1012.070312 C 2197.660156 1012.070312 2278.691406 978.320312 2274.078125 895.160156 C 2269.46875 812 2190.140625 881.078125 2190.140625 881.078125 L 2196.410156 730.320312 C 2196.410156 730.320312 2192.871094 661.730469 2082.421875 641.671875 C 2082.421875 641.671875 2025.980469 679.191406 1965.921875 679.179688 C 1905.859375 679.179688 1767.121094 648.871094 1767.121094 648.871094 C 1767.121094 648.871094 1739.878906 773.328125 1665.519531 830.320312 Z M 1671.910156 917.75 "/>
<path fill-rule="nonzero" fill="rgb(74.021912%, 36.473083%, 35.301208%)" fill-opacity="1" d="M 1937.621094 1013.78125 L 1971.671875 970.570312 C 1971.671875 970.570312 1996.789062 1011.660156 1937.621094 1013.78125 Z M 1937.621094 1013.78125 "/>
<path fill-rule="nonzero" fill="rgb(10.205078%, 10.205078%, 10.205078%)" fill-opacity="1" d="M 1837.808594 894.488281 C 1840.601562 918.578125 1832.761719 939.28125 1820.289062 940.71875 C 1814.300781 941.410156 1808.03125 937.480469 1802.839844 929.800781 C 1797.660156 922.109375 1794 911.289062 1792.660156 899.71875 C 1791.320312 888.148438 1792.410156 876.78125 1795.699219 868.121094 C 1798.988281 859.441406 1804.199219 854.191406 1810.191406 853.488281 C 1822.660156 852.050781 1835.019531 870.410156 1837.808594 894.488281 Z M 1837.808594 894.488281 "/>
<path fill-rule="nonzero" fill="rgb(10.205078%, 10.205078%, 10.205078%)" fill-opacity="1" d="M 2085.820312 877.078125 C 2085.75 888.71875 2083.300781 899.871094 2079 908.089844 C 2074.691406 916.300781 2068.878906 920.890625 2062.859375 920.859375 C 2056.828125 920.828125 2051.070312 916.171875 2046.859375 907.921875 C 2042.640625 899.660156 2040.300781 888.480469 2040.359375 876.839844 C 2040.421875 865.191406 2042.878906 854.03125 2047.179688 845.820312 C 2051.488281 837.609375 2057.289062 833.019531 2063.320312 833.050781 C 2069.351562 833.078125 2075.109375 837.738281 2079.320312 846 C 2083.539062 854.25 2085.878906 865.429688 2085.820312 877.078125 Z M 2085.820312 877.078125 "/>
<path fill-rule="nonzero" fill="rgb(100%, 100%, 100%)" fill-opacity="1" d="M 1837.738281 1080.398438 C 1837.738281 1080.398438 1978.710938 1124.480469 2051.089844 1050.621094 C 2051.089844 1050.621094 2031.261719 1190.078125 1956.289062 1193.179688 C 1881.308594 1196.289062 1837.738281 1080.398438 1837.738281 1080.398438 Z M 1837.738281 1080.398438 "/>
<path fill-rule="nonzero" fill="rgb(10.205078%, 10.205078%, 10.205078%)" fill-opacity="1" d="M 1926.019531 1316.390625 L 1930.390625 1258.699219 L 1946.78125 1285.71875 L 1966.300781 1228.050781 L 2007.019531 1268.140625 L 2011.359375 1235.308594 L 2049.769531 1293.871094 Z M 1926.019531 1316.390625 "/>
<path fill-rule="nonzero" fill="rgb(74.021912%, 36.473083%, 35.301208%)" fill-opacity="1" d="M 1629.179688 917.378906 C 1624.230469 918.070312 1619.449219 921.089844 1615.101562 926.480469 C 1610.738281 931.871094 1606.671875 939.679688 1602.808594 950.578125 C 1602.289062 952.03125 1603.039062 953.628906 1604.488281 954.148438 C 1605.949219 954.671875 1607.558594 953.898438 1608.070312 952.429688 C 1611.789062 941.910156 1615.679688 934.628906 1619.441406 929.980469 C 1623.191406 925.328125 1626.691406 923.378906 1629.960938 922.929688 C 1633.230469 922.46875 1636.609375 923.5 1640.191406 925.890625 C 1643.78125 928.28125 1647.441406 932 1650.921875 936.449219 C 1663.039062 951.96875 1670.03125 971.328125 1672.289062 977.199219 C 1669.75 976.058594 1669.199219 975.160156 1665.441406 974.691406 C 1661.558594 974.210938 1657.171875 974.558594 1653.21875 976.898438 C 1649.261719 979.238281 1645.960938 983.5 1643.980469 990.039062 C 1641.898438 996.910156 1643.539062 1003.378906 1646.980469 1008.621094 C 1650.429688 1013.859375 1655.558594 1018.089844 1660.820312 1021.5 C 1671.351562 1028.339844 1682.679688 1031.960938 1682.679688 1031.960938 C 1684.160156 1032.429688 1685.730469 1031.609375 1686.191406 1030.128906 C 1686.660156 1028.660156 1685.859375 1027.089844 1684.398438 1026.621094 C 1684.398438 1026.621094 1673.621094 1023.160156 1663.871094 1016.839844 C 1659 1013.679688 1654.421875 1009.800781 1651.628906 1005.558594 C 1648.851562 1001.320312 1647.730469 996.929688 1649.320312 991.691406 C 1651.011719 986.109375 1653.46875 983.230469 1656.089844 981.679688 C 1658.699219 980.128906 1661.679688 979.820312 1664.730469 980.210938 C 1670.839844 980.96875 1676.5 984.550781 1676.5 984.550781 C 1678.75 986.019531 1681.570312 983.789062 1680.660156 981.269531 C 1680.660156 981.269531 1670.128906 952 1655.300781 933.011719 C 1651.589844 928.261719 1647.609375 924.109375 1643.28125 921.230469 C 1638.949219 918.339844 1634.128906 916.691406 1629.179688 917.378906 Z M 1629.179688 917.378906 "/>
<path fill-rule="nonzero" fill="rgb(74.021912%, 36.473083%, 35.301208%)" fill-opacity="1" d="M 2230.25 877.53125 C 2222.300781 879.789062 2215.929688 887.53125 2210.359375 896.449219 C 2199.21875 914.300781 2191.78125 938.011719 2191.78125 938.011719 C 2191.019531 940.53125 2193.871094 942.609375 2196.039062 941.101562 C 2196.039062 941.101562 2201.988281 936.949219 2208.371094 934.75 C 2211.558594 933.660156 2214.789062 933.121094 2217.179688 933.578125 C 2219.570312 934.039062 2221.230469 935.101562 2222.488281 938.351562 C 2223.640625 941.339844 2223.101562 945.421875 2221.210938 950 C 2219.308594 954.589844 2216.148438 959.53125 2212.75 964 C 2205.949219 972.949219 2198.328125 980.03125 2198.328125 980.03125 C 2197.21875 981.078125 2197.171875 982.820312 2198.210938 983.941406 C 2199.25 985.089844 2201.03125 985.160156 2202.160156 984.109375 C 2202.160156 984.109375 2210.019531 976.78125 2217.179688 967.359375 C 2220.75 962.648438 2224.191406 957.398438 2226.378906 952.109375 C 2228.558594 946.808594 2229.601562 941.320312 2227.679688 936.339844 C 2225.859375 931.609375 2222.148438 928.839844 2218.21875 928.089844 C 2214.289062 927.328125 2210.261719 928.191406 2206.558594 929.460938 C 2203.121094 930.640625 2202.628906 931.378906 2200.179688 932.769531 C 2202.199219 926.839844 2206.371094 913.398438 2215.109375 899.398438 C 2220.378906 890.949219 2226.511719 884.371094 2231.78125 882.871094 C 2234.410156 882.128906 2236.820312 882.390625 2239.648438 884.179688 C 2242.480469 885.980469 2245.699219 889.519531 2248.949219 895.441406 C 2249.691406 896.789062 2251.378906 897.28125 2252.730469 896.539062 C 2254.070312 895.800781 2254.558594 894.109375 2253.820312 892.769531 C 2250.289062 886.320312 2246.621094 882.011719 2242.628906 879.480469 C 2238.640625 876.949219 2234.230469 876.410156 2230.25 877.53125 Z M 2230.25 877.53125 "/>
<path fill-rule="nonzero" fill="rgb(12.156677%, 37.255859%, 50.193787%)" fill-opacity="1" d="M 1732.320312 1446.679688 C 1730.839844 1447.121094 1730 1448.671875 1730.441406 1450.148438 C 1730.441406 1450.148438 1746.191406 1502.570312 1764.53125 1554.621094 C 1773.699219 1580.648438 1783.488281 1606.570312 1792.371094 1625.929688 C 1796.808594 1635.609375 1801 1643.621094 1804.859375 1649.300781 C 1806.800781 1652.140625 1808.640625 1654.421875 1810.539062 1656.058594 C 1812.449219 1657.691406 1814.621094 1658.871094 1817.101562 1658.511719 C 1821.019531 1657.949219 1824.839844 1655.210938 1829.859375 1651.179688 C 1834.878906 1647.140625 1840.800781 1641.699219 1847.308594 1635.46875 C 1860.351562 1623.019531 1875.78125 1607.378906 1890.75 1593.710938 C 1905.71875 1580.039062 1920.371094 1568.339844 1930.988281 1563.910156 C 1936.300781 1561.691406 1940.308594 1561.410156 1942.890625 1562.691406 C 1945.480469 1563.96875 1947.621094 1567.101562 1948.519531 1573.921875 C 1948.71875 1575.429688 1950.109375 1576.5 1951.628906 1576.308594 C 1953.160156 1576.109375 1954.230469 1574.699219 1954.019531 1573.171875 C 1953 1565.390625 1950.148438 1560.058594 1945.378906 1557.699219 C 1940.609375 1555.339844 1934.878906 1556.25 1928.839844 1558.769531 C 1916.738281 1563.820312 1902.121094 1575.78125 1886.988281 1589.589844 C 1871.871094 1603.410156 1856.421875 1619.101562 1843.480469 1631.460938 C 1837.011719 1637.640625 1831.160156 1642.988281 1826.378906 1646.820312 C 1821.601562 1650.660156 1817.570312 1652.820312 1816.320312 1653 C 1816.210938 1653.019531 1815.46875 1652.941406 1814.179688 1651.839844 C 1812.890625 1650.730469 1811.25 1648.769531 1809.480469 1646.171875 C 1805.941406 1640.960938 1801.808594 1633.121094 1797.441406 1623.589844 C 1788.699219 1604.53125 1778.929688 1578.710938 1769.789062 1552.769531 C 1751.5 1500.871094 1735.789062 1448.558594 1735.789062 1448.558594 C 1735.351562 1447.078125 1733.789062 1446.238281 1732.320312 1446.679688 Z M 1732.320312 1446.679688 "/>
<path fill-rule="nonzero" fill="rgb(12.156677%, 37.255859%, 50.193787%)" fill-opacity="1" d="M 2025.308594 1551 C 2023.660156 1550.78125 2021.589844 1551.269531 2020.53125 1552.75 C 2019.46875 1554.230469 2019.539062 1555.761719 2019.71875 1557.089844 C 2019.890625 1558.421875 2020.28125 1559.710938 2020.789062 1561.058594 C 2022.828125 1566.449219 2026.730469 1572.449219 2026.730469 1572.449219 C 2027.558594 1573.730469 2029.269531 1574.109375 2030.558594 1573.300781 C 2031.851562 1572.460938 2032.230469 1570.75 2031.410156 1569.460938 C 2031.410156 1569.460938 2027.691406 1563.519531 2026.019531 1559.089844 C 2025.679688 1558.191406 2025.5 1557.488281 2025.371094 1556.859375 C 2026.019531 1557.058594 2026.699219 1557.230469 2028.058594 1557.960938 C 2029.46875 1558.71875 2032.191406 1560.890625 2035.421875 1563.988281 C 2038.648438 1567.089844 2042.5 1571.121094 2046.789062 1575.730469 C 2055.378906 1584.929688 2065.679688 1596.449219 2076.269531 1607.621094 C 2086.851562 1618.78125 2097.699219 1629.589844 2107.578125 1637.488281 C 2117.46875 1645.390625 2126.21875 1650.839844 2134.050781 1649.691406 C 2140.960938 1648.671875 2146.480469 1644.519531 2150.769531 1639.238281 C 2155.058594 1633.960938 2158.21875 1627.460938 2160.609375 1621.160156 C 2165.371094 1608.539062 2167 1596.46875 2167 1596.46875 C 2167.21875 1594.949219 2166.160156 1593.539062 2164.640625 1593.320312 C 2163.109375 1593.109375 2161.691406 1594.191406 2161.488281 1595.730469 C 2161.488281 1595.730469 2159.890625 1607.289062 2155.390625 1619.191406 C 2153.140625 1625.148438 2150.191406 1631.128906 2146.46875 1635.710938 C 2142.75 1640.28125 2138.410156 1643.410156 2133.230469 1644.179688 C 2128.96875 1644.800781 2120.578125 1640.75 2111.078125 1633.148438 C 2101.578125 1625.558594 2090.789062 1614.871094 2080.269531 1603.789062 C 2069.769531 1592.699219 2059.519531 1581.210938 2050.878906 1571.929688 C 2046.558594 1567.300781 2042.628906 1563.199219 2039.269531 1559.96875 C 2035.898438 1556.738281 2033.191406 1554.378906 2030.71875 1553.050781 C 2028.628906 1551.910156 2026.941406 1551.230469 2025.300781 1551 Z M 2025.308594 1551 "/>
<path fill-rule="nonzero" fill="rgb(12.156677%, 37.255859%, 50.193787%)" fill-opacity="1" d="M 1985.609375 1688.089844 C 1984.058594 1688.089844 1982.808594 1689.359375 1982.828125 1690.910156 L 1988.109375 2080.820312 C 1988.128906 2082.359375 1989.398438 2083.589844 1990.941406 2083.558594 C 1992.46875 2083.539062 1993.699219 2082.269531 1993.679688 2080.730469 L 1988.398438 1690.820312 C 1988.378906 1689.300781 1987.128906 1688.078125 1985.609375 1688.089844 Z M 1985.609375 1688.089844 "/>
<path fill-rule="nonzero" fill="rgb(12.156677%, 37.255859%, 50.193787%)" fill-opacity="1" d="M 1825.128906 1757.539062 C 1824.398438 1757.519531 1823.691406 1757.78125 1823.148438 1758.28125 C 1822.019531 1759.339844 1821.96875 1761.109375 1823.03125 1762.230469 C 1823.03125 1762.230469 1870.550781 1812.710938 1922.011719 1869.699219 C 1947.730469 1898.191406 1974.460938 1928.320312 1996.691406 1954.539062 C 2018.929688 1980.75 2036.730469 2003.179688 2044.390625 2015.800781 C 2045.179688 2017.121094 2046.890625 2017.550781 2048.21875 2016.75 C 2049.550781 2015.949219 2049.960938 2014.210938 2049.140625 2012.890625 C 2041.019531 1999.519531 2023.238281 1977.230469 2000.941406 1950.941406 C 1978.640625 1924.648438 1951.871094 1894.5 1926.121094 1865.980469 C 1874.609375 1808.941406 1827.070312 1758.410156 1827.070312 1758.410156 C 1826.570312 1757.871094 1825.871094 1757.558594 1825.128906 1757.539062 Z M 1825.128906 1757.539062 "/>
<path fill-rule="nonzero" fill="rgb(0%, 0%, 0%)" fill-opacity="1" d="M 1698.558594 1401.140625 L 1679.988281 1400.878906 C 1679.988281 1400.878906 1678.441406 1509.609375 1693.300781 1656.140625 L 1711.75 1654.25 C 1697 1508.769531 1698.558594 1401.140625 1698.558594 1401.140625 Z M 1698.558594 1401.140625 "/>
<path fill-rule="nonzero" fill="rgb(10.205078%, 10.205078%, 10.205078%)" fill-opacity="1" d="M 1784.511719 1676.769531 C 1782.878906 1700.460938 1772.808594 1722.601562 1756.519531 1738.308594 C 1740.230469 1754.019531 1719.070312 1762.011719 1697.671875 1760.53125 C 1676.28125 1759.050781 1656.410156 1748.21875 1642.441406 1730.421875 C 1628.46875 1712.621094 1621.539062 1689.320312 1623.179688 1665.621094 C 1626.589844 1616.289062 1665.46875 1578.789062 1710.019531 1581.871094 C 1754.570312 1584.941406 1787.921875 1627.441406 1784.511719 1676.769531 Z M 1784.511719 1676.769531 "/>
<path fill-rule="nonzero" fill="rgb(92.576599%, 92.576599%, 92.576599%)" fill-opacity="1" d="M 2321.699219 1447.570312 L 2387.699219 1746.460938 L 2411.628906 1487.449219 C 2360.519531 1463.589844 2321.699219 1447.570312 2321.699219 1447.570312 Z M 2321.699219 1447.570312 "/>
<path fill-rule="nonzero" fill="rgb(70.117188%, 70.117188%, 70.117188%)" fill-opacity="1" d="M 2321.058594 1444.859375 C 2319.550781 1445.210938 2318.628906 1446.738281 2319 1448.238281 C 2319 1448.238281 2340.378906 1535.449219 2359.109375 1624.070312 C 2368.46875 1668.390625 2377.179688 1713.050781 2382.191406 1747.28125 C 2384.699219 1764.390625 2386.261719 1778.921875 2386.558594 1789.359375 C 2386.710938 1794.578125 2386.519531 1798.808594 2386.03125 1801.691406 C 2385.539062 1804.570312 2384.539062 1805.738281 2384.671875 1805.671875 C 2379.839844 1808.300781 2368.011719 1812.691406 2353.441406 1817.621094 C 2338.871094 1822.558594 2321.390625 1828.140625 2304.550781 1833.589844 C 2287.710938 1839.03125 2271.480469 1844.328125 2259.390625 1848.761719 C 2253.351562 1850.96875 2248.351562 1852.96875 2244.730469 1854.691406 C 2242.910156 1855.550781 2241.46875 1856.308594 2240.308594 1857.109375 C 2239.71875 1857.511719 2239.199219 1857.929688 2238.71875 1858.460938 C 2238.25 1858.980469 2237.691406 1859.691406 2237.609375 1860.890625 C 2237.519531 1862.171875 2237.910156 1862.710938 2238.238281 1863.328125 C 2238.558594 1863.949219 2238.96875 1864.558594 2239.449219 1865.230469 C 2240.429688 1866.578125 2241.789062 1868.148438 2243.480469 1870.058594 C 2246.859375 1873.878906 2251.589844 1878.890625 2257.230469 1884.761719 C 2268.519531 1896.488281 2283.371094 1911.648438 2297.5 1927.28125 C 2311.621094 1942.921875 2325.050781 1959.058594 2333.46875 1972.5 C 2337.671875 1979.21875 2340.589844 1985.289062 2341.78125 1990.058594 C 2342.960938 1994.820312 2342.46875 1997.871094 2340.550781 1999.898438 C 2334.789062 2006 2324.371094 2019.46875 2311.730469 2036.53125 C 2299.089844 2053.589844 2284.320312 2074.140625 2270.230469 2093.960938 C 2242.050781 2133.601562 2216.628906 2170.328125 2216.628906 2170.328125 C 2215.75 2171.589844 2216.070312 2173.320312 2217.339844 2174.191406 C 2218.589844 2175.070312 2220.320312 2174.769531 2221.199219 2173.519531 C 2221.199219 2173.519531 2246.621094 2136.78125 2274.769531 2097.179688 C 2288.851562 2077.371094 2303.621094 2056.871094 2316.230469 2039.859375 C 2328.828125 2022.851562 2339.390625 2009.230469 2344.621094 2003.710938 C 2348.191406 1999.929688 2348.609375 1994.460938 2347.179688 1988.71875 C 2345.75 1982.980469 2342.558594 1976.558594 2338.179688 1969.558594 C 2329.410156 1955.558594 2315.828125 1939.308594 2301.609375 1923.570312 C 2287.378906 1907.828125 2272.5 1892.589844 2261.238281 1880.890625 C 2255.609375 1875.03125 2250.890625 1870.070312 2247.628906 1866.378906 C 2246 1864.539062 2244.75 1863.019531 2243.96875 1861.949219 C 2243.851562 1861.769531 2243.800781 1861.710938 2243.710938 1861.570312 C 2244.449219 1861.078125 2245.550781 1860.429688 2247.109375 1859.691406 C 2250.429688 1858.121094 2255.359375 1856.171875 2261.320312 1853.980469 C 2273.25 1849.609375 2289.429688 1844.308594 2306.261719 1838.871094 C 2323.089844 1833.429688 2340.578125 1827.828125 2355.21875 1822.871094 C 2369.871094 1817.910156 2381.5 1813.710938 2387.308594 1810.539062 C 2390.101562 1809.019531 2390.941406 1806.121094 2391.53125 1802.621094 C 2392.128906 1799.109375 2392.289062 1794.628906 2392.128906 1789.199219 C 2391.820312 1778.339844 2390.230469 1763.691406 2387.699219 1746.460938 C 2382.660156 1712 2373.941406 1667.300781 2364.570312 1622.929688 C 2345.820312 1534.179688 2324.398438 1446.910156 2324.398438 1446.910156 C 2324.039062 1445.421875 2322.539062 1444.5 2321.050781 1444.859375 Z M 2321.058594 1444.859375 "/>
<path fill-rule="nonzero" fill="rgb(0%, 0%, 0%)" fill-opacity="1" d="M 2221.949219 1448.078125 C 2208.128906 1442.46875 2192.691406 1443.328125 2180.28125 1449.089844 C 2167.871094 1454.851562 2158.070312 1464.359375 2149.46875 1475.539062 C 2132.269531 1497.910156 2119.378906 1528.070312 2108.839844 1559.320312 C 2098.308594 1590.570312 2090.5 1622.789062 2085.589844 1648.449219 C 2083.140625 1661.28125 2081.421875 1672.410156 2080.449219 1681.21875 C 2079.960938 1685.621094 2079.679688 1689.429688 2079.609375 1692.871094 C 2079.539062 1696.320312 2078.371094 1697.949219 2081.398438 1705.429688 C 2085.25 1714.929688 2096.058594 1719.519531 2105.558594 1715.679688 C 2115.058594 1711.839844 2119.648438 1701.019531 2115.820312 1691.519531 C 2118.148438 1697.289062 2116.691406 1695.371094 2116.71875 1693.660156 C 2116.769531 1691.941406 2116.96875 1688.988281 2117.371094 1685.300781 C 2118.179688 1677.921875 2119.789062 1667.511719 2122.089844 1655.441406 C 2126.699219 1631.308594 2134.199219 1600.328125 2144.019531 1571.171875 C 2153.859375 1542.019531 2166.359375 1514.539062 2178.921875 1498.199219 C 2185.210938 1490.03125 2191.371094 1484.898438 2195.921875 1482.789062 C 2200.46875 1480.679688 2202.96875 1480.460938 2208.011719 1482.5 C 2210.519531 1483.519531 2224.851562 1496.871094 2237.640625 1516.871094 C 2250.421875 1536.878906 2263.851562 1562.828125 2275.71875 1588.378906 C 2287.570312 1613.929688 2297.941406 1639.171875 2304.910156 1657.960938 C 2308.390625 1667.359375 2311.039062 1675.179688 2312.53125 1680.28125 C 2313.269531 1682.820312 2313.738281 1684.78125 2313.820312 1685.238281 C 2313.859375 1685.460938 2313.75 1685.421875 2313.761719 1684 C 2313.769531 1682.578125 2311.089844 1678.058594 2320.328125 1670.519531 C 2316.511719 1673.640625 2314.078125 1678.140625 2313.589844 1683.050781 C 2313.089844 1687.949219 2314.570312 1692.851562 2317.679688 1696.671875 C 2320.800781 1700.488281 2325.308594 1702.910156 2330.210938 1703.410156 C 2335.109375 1703.910156 2340.011719 1702.429688 2343.828125 1699.308594 C 2353.378906 1691.519531 2350.890625 1686.378906 2350.890625 1683.980469 C 2350.890625 1681.578125 2350.640625 1680.191406 2350.378906 1678.75 C 2349.871094 1675.859375 2349.148438 1673.128906 2348.191406 1669.871094 C 2346.28125 1663.339844 2343.410156 1654.960938 2339.730469 1645.03125 C 2332.359375 1625.160156 2321.730469 1599.238281 2309.410156 1572.710938 C 2297.101562 1546.179688 2283.191406 1519.140625 2268.949219 1496.859375 C 2254.699219 1474.570312 2242.320312 1456.351562 2221.949219 1448.078125 Z M 2221.949219 1448.078125 "/>
<path fill-rule="nonzero" fill="rgb(0%, 0%, 0%)" fill-opacity="1" d="M 2092.609375 1663.730469 C 2091.679688 1665.839844 2091.910156 1665.710938 2091.640625 1666.71875 C 2091.371094 1667.730469 2091.058594 1669.019531 2090.679688 1670.621094 C 2089.910156 1673.808594 2088.898438 1678.179688 2087.738281 1683.648438 C 2085.421875 1694.609375 2082.441406 1709.859375 2079.449219 1727.921875 C 2073.460938 1764.019531 2067.410156 1811.371094 2066.5 1858.371094 C 2065.589844 1905.378906 2069.589844 1952 2085.011719 1987.371094 C 2092.710938 2005.058594 2103.429688 2020.058594 2118.238281 2030.101562 C 2133.050781 2040.140625 2151.75 2044.789062 2173.519531 2042.691406 L 2171.738281 2024.199219 C 2153.46875 2025.960938 2139.820312 2022.300781 2128.679688 2014.75 C 2117.550781 2007.199219 2108.75 1995.390625 2102.03125 1979.960938 C 2088.589844 1949.121094 2084.210938 1904.398438 2085.089844 1858.75 C 2085.980469 1813.101562 2091.898438 1766.441406 2097.78125 1730.929688 C 2100.71875 1713.179688 2103.640625 1698.210938 2105.910156 1687.53125 C 2107.039062 1682.179688 2108.03125 1677.898438 2108.75 1674.921875 C 2109.101562 1673.429688 2109.390625 1672.261719 2109.601562 1671.488281 C 2109.800781 1670.710938 2110.339844 1669.480469 2109.578125 1671.199219 Z M 2092.609375 1663.730469 "/>
<path fill-rule="nonzero" fill="rgb(0%, 0%, 0%)" fill-opacity="1" d="M 2311.640625 1618.359375 L 2295.421875 1627.421875 C 2295.421875 1627.421875 2328.371094 1686.410156 2345.609375 1757.261719 C 2354.230469 1792.679688 2358.820312 1830.921875 2353.75 1865.679688 C 2348.699219 1900.441406 2334.378906 1931.519531 2304.640625 1954.910156 L 2316.140625 1969.519531 C 2349.949219 1942.929688 2366.550781 1906.601562 2372.121094 1868.371094 C 2377.679688 1830.140625 2372.609375 1789.78125 2363.628906 1752.871094 C 2345.660156 1679.039062 2311.640625 1618.359375 2311.640625 1618.359375 Z M 2311.640625 1618.359375 "/>
<path fill-rule="nonzero" fill="rgb(10.205078%, 10.205078%, 10.205078%)" fill-opacity="1" d="M 2228.839844 2028.359375 C 2228.21875 2037.441406 2224 2045.910156 2217.140625 2051.890625 C 2210.269531 2057.859375 2201.308594 2060.871094 2192.21875 2060.238281 C 2183.140625 2059.621094 2174.679688 2055.410156 2168.699219 2048.539062 C 2162.71875 2041.671875 2159.710938 2032.710938 2160.339844 2023.621094 C 2160.96875 2014.539062 2165.179688 2006.078125 2172.039062 2000.101562 C 2178.910156 1994.121094 2187.871094 1991.109375 2196.960938 1991.738281 C 2215.878906 1993.050781 2230.148438 2009.441406 2228.839844 2028.359375 Z M 2228.839844 2028.359375 "/>
<path fill-rule="nonzero" fill="rgb(10.205078%, 10.205078%, 10.205078%)" fill-opacity="1" d="M 2323.96875 1976.359375 C 2323.339844 1985.441406 2319.128906 1993.898438 2312.261719 1999.878906 C 2305.390625 2005.859375 2296.429688 2008.871094 2287.351562 2008.238281 C 2278.261719 2007.609375 2269.800781 2003.398438 2263.820312 1996.53125 C 2257.839844 1989.660156 2254.839844 1980.699219 2255.460938 1971.621094 C 2256.769531 1952.699219 2273.160156 1938.429688 2292.078125 1939.730469 C 2301.160156 1940.359375 2309.628906 1944.570312 2315.609375 1951.441406 C 2321.589844 1958.308594 2324.589844 1967.269531 2323.96875 1976.359375 Z M 2323.96875 1976.359375 "/>
<path fill-rule="nonzero" fill="rgb(92.576599%, 92.576599%, 92.576599%)" fill-opacity="1" d="M 1483.308594 1489.011719 C 1483.308594 1489.011719 1440.101562 1506.378906 1384.210938 1530.640625 L 1464.128906 1898.101562 Z M 1483.308594 1489.011719 "/>
<path fill-rule="nonzero" fill="rgb(70.117188%, 70.117188%, 70.117188%)" fill-opacity="1" d="M 1175.390625 1731.839844 C 1173.980469 1731.199219 1172.328125 1731.820312 1171.691406 1733.21875 C 1171.050781 1734.621094 1171.671875 1736.28125 1173.070312 1736.921875 C 1173.070312 1736.921875 1335.800781 1812.308594 1411.878906 1929.609375 C 1412.710938 1930.890625 1414.429688 1931.25 1415.710938 1930.421875 C 1417.011719 1929.578125 1417.378906 1927.839844 1416.519531 1926.550781 C 1339.070312 1807.128906 1175.390625 1731.839844 1175.390625 1731.839844 Z M 1175.390625 1731.839844 "/>
<path fill-rule="nonzero" fill="rgb(70.117188%, 70.117188%, 70.117188%)" fill-opacity="1" d="M 1855.441406 2225.519531 L 1576.46875 2325.21875 C 1573.640625 2326.25 1574.230469 2330.410156 1577.21875 2330.621094 L 1592.820312 2331.699219 C 1594.359375 2331.808594 1595.699219 2330.640625 1595.808594 2329.109375 C 1595.910156 2327.570312 1594.75 2326.230469 1593.210938 2326.121094 L 1590.960938 2325.96875 L 1857.300781 2230.769531 C 1858.769531 2230.261719 1859.539062 2228.640625 1859 2227.179688 C 1858.480469 2225.738281 1856.890625 2225 1855.441406 2225.519531 Z M 1855.441406 2225.519531 "/>
<path fill-rule="nonzero" fill="rgb(32.93457%, 68.554688%, 86.71875%)" fill-opacity="1" d="M 2092.621094 2166.351562 C 2114.878906 2287.671875 2113.320312 2367.339844 2113.320312 2367.339844 L 2180.300781 2371.960938 L 2181.101562 2322.300781 C 2122.578125 2290.890625 2092.621094 2166.351562 2092.621094 2166.351562 Z M 2092.621094 2166.351562 "/>
<path fill-rule="nonzero" fill="rgb(70.117188%, 70.117188%, 70.117188%)" fill-opacity="1" d="M 2083.800781 2118.488281 C 2082.289062 2118.800781 2081.320312 2120.289062 2081.640625 2121.800781 C 2081.640625 2121.800781 2095.398438 2189.78125 2105.578125 2274.328125 C 2115.679688 2358.261719 2121.949219 2458.296875 2108.070312 2523.898438 L 1848.621094 2575.859375 C 1848.410156 2575.898438 1848.21875 2575.957031 1848.019531 2576.039062 C 1848.019531 2576.039062 1760.421875 2615.007812 1663.328125 2653.3125 C 1614.789062 2672.464844 1563.859375 2691.445312 1520.390625 2705.292969 C 1476.910156 2719.140625 1440.558594 2727.742188 1422.589844 2726.5 C 1421.058594 2726.410156 1419.75 2727.570312 1419.640625 2729.097656 C 1419.558594 2730.609375 1420.691406 2731.917969 1422.210938 2732.035156 C 1442.351562 2733.429688 1478.410156 2724.523438 1522.089844 2710.609375 C 1565.769531 2696.699219 1616.761719 2677.6875 1665.371094 2658.507812 C 1762.449219 2620.207031 1849.769531 2581.378906 1850.03125 2581.265625 L 2111.21875 2528.949219 C 2112.300781 2528.742188 2113.148438 2527.917969 2113.398438 2526.847656 C 2128.011719 2459.785156 2121.320312 2358.449219 2111.109375 2273.660156 C 2100.910156 2188.871094 2087.101562 2120.679688 2087.101562 2120.679688 C 2086.808594 2119.160156 2085.320312 2118.179688 2083.800781 2118.488281 Z M 2083.800781 2118.488281 "/>
<path fill-rule="nonzero" fill="rgb(70.117188%, 70.117188%, 70.117188%)" fill-opacity="1" d="M 2113.519531 2364.558594 C 2112 2364.441406 2110.671875 2365.589844 2110.550781 2367.109375 C 2110.410156 2368.648438 2111.558594 2370 2113.101562 2370.128906 L 2496.21875 2399.039062 C 2496.949219 2399.949219 2519.199219 2427.503906 2546.039062 2455.722656 C 2559.679688 2470.0625 2574.289062 2484.351562 2587.550781 2494.992188 C 2594.179688 2500.316406 2600.480469 2504.707031 2606.230469 2507.777344 C 2611.980469 2510.84375 2617.179688 2512.664062 2621.949219 2512.316406 C 2624.261719 2512.148438 2626.289062 2511.570312 2627.808594 2510.175781 C 2629.339844 2508.78125 2629.96875 2506.652344 2629.859375 2504.71875 C 2629.640625 2500.847656 2627.378906 2496.96875 2624.101562 2492.355469 C 2617.53125 2483.128906 2606.179688 2471.472656 2593.828125 2459.863281 C 2569.140625 2436.636719 2540.609375 2413.78125 2540.609375 2413.78125 C 2539.410156 2412.816406 2537.660156 2413.003906 2536.699219 2414.203125 C 2535.730469 2415.410156 2535.941406 2417.167969 2537.148438 2418.125 C 2537.148438 2418.125 2565.519531 2440.914062 2589.988281 2463.921875 C 2602.21875 2475.429688 2613.511719 2487.035156 2619.589844 2495.570312 C 2622.621094 2499.839844 2624.191406 2503.464844 2624.28125 2505.023438 C 2624.320312 2505.800781 2624.230469 2505.871094 2624.019531 2506.058594 C 2623.808594 2506.25 2623.089844 2506.644531 2621.539062 2506.761719 C 2618.578125 2506.976562 2614.128906 2505.679688 2608.859375 2502.867188 C 2603.589844 2500.050781 2597.5 2495.835938 2591.050781 2490.652344 C 2578.128906 2480.285156 2563.628906 2466.132812 2550.089844 2451.894531 C 2523 2423.417969 2499.71875 2394.589844 2499.71875 2394.589844 C 2499.230469 2394.007812 2498.539062 2393.644531 2497.789062 2393.585938 Z M 2113.519531 2364.558594 "/>
<path fill-rule="nonzero" fill="rgb(70.117188%, 70.117188%, 70.117188%)" fill-opacity="1" d="M 2484.851562 2434.003906 C 2483.980469 2433.847656 2482.75 2434.210938 2482.109375 2434.792969 C 2480.820312 2435.960938 2480.910156 2436.867188 2480.808594 2437.757812 C 2480.710938 2438.652344 2480.699219 2439.625 2480.75 2440.773438 C 2480.949219 2445.359375 2482.089844 2452.808594 2483.898438 2462.554688 C 2487.519531 2482.050781 2493.800781 2510.394531 2500.578125 2539.53125 C 2514.140625 2597.800781 2529.648438 2659.289062 2529.648438 2659.289062 C 2530.03125 2660.78125 2531.550781 2661.6875 2533.039062 2661.304688 C 2534.53125 2660.929688 2535.429688 2659.410156 2535.058594 2657.917969 C 2535.058594 2657.917969 2519.558594 2596.46875 2506.011719 2538.269531 C 2499.238281 2509.167969 2492.96875 2480.859375 2489.390625 2461.550781 C 2488.21875 2455.273438 2487.898438 2451.9375 2487.390625 2447.886719 C 2491.269531 2455.300781 2495.730469 2464.3125 2501.960938 2478.566406 C 2509.769531 2496.441406 2518.75 2517.84375 2527.199219 2538.460938 C 2544.109375 2579.695312 2559.039062 2617.71875 2559.039062 2617.71875 C 2559.609375 2619.136719 2561.210938 2619.832031 2562.640625 2619.277344 C 2564.070312 2618.722656 2564.789062 2617.113281 2564.230469 2615.675781 C 2564.230469 2615.675781 2549.261719 2577.625 2532.328125 2536.339844 C 2523.871094 2515.699219 2514.929688 2494.28125 2507.089844 2476.339844 C 2499.25 2458.398438 2492.621094 2444.054688 2488.449219 2437.195312 C 2487.890625 2436.261719 2487.398438 2435.5625 2486.609375 2434.886719 C 2486.21875 2434.546875 2485.730469 2434.164062 2484.859375 2434 Z M 2484.851562 2434.003906 "/>
<path fill-rule="nonzero" fill="rgb(70.117188%, 70.117188%, 70.117188%)" fill-opacity="1" d="M 2469.449219 2018.050781 C 2467.910156 2018.160156 2466.769531 2019.5 2466.878906 2021.03125 L 2494.78125 2396.578125 C 2494.898438 2398.113281 2496.230469 2399.261719 2497.769531 2399.148438 C 2499.308594 2399.03125 2500.449219 2397.695312 2500.339844 2396.160156 L 2472.441406 2020.621094 C 2472.320312 2019.078125 2470.980469 2017.929688 2469.449219 2018.050781 Z M 2469.449219 2018.050781 "/>
<path fill-rule="nonzero" fill="rgb(70.117188%, 70.117188%, 70.117188%)" fill-opacity="1" d="M 2543.960938 1689.179688 C 2542.820312 1688.140625 2541.050781 1688.230469 2540.019531 1689.378906 C 2517.699219 1714.148438 2496.109375 1764.339844 2479.710938 1808.558594 C 2463.308594 1852.78125 2452.339844 1890.96875 2452.339844 1890.96875 C 2451.921875 1892.441406 2452.769531 1893.980469 2454.25 1894.410156 C 2455.71875 1894.828125 2457.261719 1893.980469 2457.691406 1892.5 C 2457.691406 1892.5 2468.609375 1854.488281 2484.921875 1810.488281 C 2501.230469 1766.488281 2523.171875 1716.410156 2544.160156 1693.121094 C 2545.199219 1691.980469 2545.109375 1690.210938 2543.960938 1689.179688 Z M 2543.960938 1689.179688 "/>
<path fill-rule="nonzero" fill="rgb(70.117188%, 70.117188%, 70.117188%)" fill-opacity="1" d="M 1493.019531 1531.128906 C 1491.488281 1530.960938 1490.121094 1532.050781 1489.941406 1533.570312 C 1489.941406 1533.570312 1477.160156 1644 1467.859375 1751.941406 C 1463.21875 1805.921875 1459.460938 1859.269531 1458.570312 1897.960938 C 1458.128906 1917.308594 1458.390625 1932.980469 1459.691406 1943.429688 C 1460.339844 1948.648438 1461.128906 1952.539062 1462.640625 1955.339844 C 1463.398438 1956.738281 1464.460938 1958.019531 1466.160156 1958.601562 C 1467.871094 1959.179688 1469.75 1958.621094 1471.070312 1957.671875 C 1485.351562 1947.308594 1517.601562 1918.171875 1546.558594 1891.429688 C 1571.980469 1867.949219 1589.160156 1851.601562 1594.339844 1846.691406 C 1592.429688 1853.929688 1584.800781 1882.160156 1577.390625 1921.519531 C 1573.230469 1943.570312 1569.679688 1966.691406 1568.339844 1986.609375 C 1567 2006.53125 1567.628906 2023.109375 1573.039062 2032.929688 C 1578.179688 2042.289062 1592.660156 2059.621094 1611.851562 2081.148438 C 1631.039062 2102.679688 1654.808594 2128.109375 1677.980469 2152.449219 C 1724.320312 2201.128906 1768.25 2245.449219 1768.25 2245.449219 C 1769.328125 2246.558594 1771.109375 2246.570312 1772.210938 2245.46875 C 1773.289062 2244.390625 1773.300781 2242.640625 1772.230469 2241.550781 C 1772.230469 2241.550781 1728.320312 2197.210938 1682.03125 2148.578125 C 1658.878906 2124.269531 1635.109375 2098.878906 1616 2077.429688 C 1596.878906 2055.980469 1582.289062 2038.160156 1577.910156 2030.21875 C 1573.800781 2022.738281 1572.570312 2006.53125 1573.878906 1986.988281 C 1575.191406 1967.449219 1578.710938 1944.46875 1582.839844 1922.558594 C 1591.101562 1878.71875 1601.730469 1839.160156 1601.730469 1839.160156 C 1602.421875 1836.480469 1599.210938 1834.550781 1597.160156 1836.410156 C 1597.160156 1836.410156 1571.691406 1860.628906 1542.769531 1887.339844 C 1513.859375 1914.050781 1481.300781 1943.339844 1467.820312 1953.109375 C 1467.78125 1953.070312 1467.820312 1953.148438 1467.558594 1952.660156 C 1466.769531 1951.199219 1465.839844 1947.679688 1465.21875 1942.75 C 1464 1932.898438 1463.691406 1917.320312 1464.128906 1898.089844 C 1465 1859.640625 1468.789062 1806.359375 1473.429688 1752.441406 C 1482.710938 1644.601562 1495.460938 1534.210938 1495.460938 1534.210938 C 1495.628906 1532.679688 1494.539062 1531.308594 1493.019531 1531.128906 Z M 1493.019531 1531.128906 "/>
<path fill-rule="nonzero" fill="rgb(98.826599%, 75.78125%, 64.256287%)" fill-opacity="1" d="M 2181.949219 2208.949219 C 2181.949219 2208.949219 2287.519531 2238.800781 2313.648438 2263.378906 C 2339.769531 2287.960938 2414.300781 2385.675781 2414.300781 2385.675781 L 2180.308594 2371.96875 Z M 2181.949219 2208.949219 "/>
<path fill-rule="nonzero" fill="rgb(32.93457%, 68.554688%, 86.71875%)" fill-opacity="1" d="M 1887.578125 2624.863281 L 1959.171875 2900.167969 L 2059.679688 2671.3125 Z M 1887.578125 2624.863281 "/>
<path fill-rule="nonzero" fill="rgb(92.576599%, 92.576599%, 92.576599%)" fill-opacity="1" d="M 1572.488281 2686.976562 L 1422.210938 2732.039062 L 1346.179688 2724.003906 L 1272.648438 3034.984375 C 1680.859375 3053.929688 2167.078125 3063 2538.359375 3049.8125 L 2523.960938 2759.070312 C 2484.21875 2762.660156 2428.140625 2768.429688 2428.140625 2768.429688 C 2428.140625 2768.429688 2180.828125 2957.960938 2064.148438 2907.429688 C 1947.46875 2856.894531 1592.710938 2981.75 1511.070312 2943.890625 C 1429.441406 2906.03125 1572.488281 2686.976562 1572.488281 2686.976562 Z M 1572.488281 2686.976562 "/>
<path fill-rule="nonzero" fill="rgb(70.117188%, 70.117188%, 70.117188%)" fill-opacity="1" d="M 1771.320312 2610.882812 C 1770.628906 2610.648438 1769.859375 2610.703125 1769.199219 2611.027344 C 1767.820312 2611.707031 1767.25 2613.375 1767.929688 2614.757812 L 1912.429688 2905.847656 C 1913.109375 2907.230469 1914.78125 2907.804688 1916.160156 2907.125 C 1917.550781 2906.449219 1918.121094 2904.777344 1917.441406 2903.394531 L 1772.929688 2612.304688 C 1772.609375 2611.632812 1772.03125 2611.125 1771.320312 2610.882812 Z M 1771.320312 2610.882812 "/>
<path fill-rule="nonzero" fill="rgb(70.117188%, 70.117188%, 70.117188%)" fill-opacity="1" d="M 2147.96875 2692.261719 C 2146.761719 2691.332031 2145.019531 2691.554688 2144.078125 2692.757812 L 1995.851562 2886.523438 C 1994.929688 2887.746094 1995.160156 2889.484375 1996.378906 2890.414062 C 1997.601562 2891.367188 1999.359375 2891.144531 2000.308594 2889.921875 L 2148.5 2696.152344 C 2149.429688 2694.929688 2149.191406 2693.191406 2147.96875 2692.261719 Z M 2147.96875 2692.261719 "/>
<path fill-rule="nonzero" fill="rgb(12.156677%, 37.255859%, 50.193787%)" fill-opacity="1" d="M 1973.820312 2645.316406 C 1972.300781 2645.207031 1970.96875 2646.347656 1970.851562 2647.875 L 1959.5 2809.386719 C 1959.390625 2810.914062 1960.53125 2812.242188 1962.058594 2812.363281 C 1963.601562 2812.476562 1964.929688 2811.3125 1965.039062 2809.769531 L 1976.410156 2648.296875 C 1976.519531 2646.753906 1975.359375 2645.417969 1973.820312 2645.316406 Z M 1973.820312 2645.316406 "/>
<path fill-rule="nonzero" fill="rgb(70.117188%, 70.117188%, 70.117188%)" fill-opacity="1" d="M 1959.390625 2897.382812 C 1957.851562 2897.273438 1956.511719 2898.4375 1956.410156 2899.980469 L 1946.460938 3036.515625 C 1946.351562 3038.042969 1947.5 3039.371094 1949.019531 3039.492188 C 1950.558594 3039.601562 1951.898438 3038.441406 1952 3036.898438 L 1961.941406 2900.363281 C 1962.058594 2898.835938 1960.910156 2897.507812 1959.390625 2897.382812 Z M 1959.390625 2897.382812 "/>
<path fill-rule="nonzero" fill="rgb(70.117188%, 70.117188%, 70.117188%)" fill-opacity="1" d="M 1444.628906 2053.441406 C 1443.109375 2053.601562 1441.988281 2054.949219 1442.128906 2056.46875 L 1467.53125 2334.089844 C 1466.839844 2334.960938 1435.960938 2374.441406 1406.53125 2413.667969 C 1391.660156 2433.496094 1377.320312 2453.050781 1367.78125 2467.136719 C 1363.011719 2474.179688 1359.449219 2479.777344 1357.519531 2483.628906 C 1356.550781 2485.550781 1355.769531 2486.675781 1355.878906 2488.789062 C 1355.898438 2489.316406 1356.039062 2490.03125 1356.550781 2490.726562 C 1357.070312 2491.417969 1358 2491.898438 1358.71875 2492 C 1360.148438 2492.210938 1360.859375 2491.765625 1361.628906 2491.367188 C 1364.398438 2489.9375 1368.441406 2486.847656 1374.039062 2482.296875 C 1379.640625 2477.746094 1386.601562 2471.804688 1394.480469 2464.90625 C 1410.238281 2451.117188 1429.570312 2433.59375 1448.351562 2416.375 C 1482.070312 2385.429688 1507.648438 2361.289062 1513.789062 2355.511719 L 1478.640625 2475.742188 C 1477.699219 2478.730469 1481.640625 2480.761719 1483.53125 2478.261719 L 1526.679688 2423.242188 C 1527.640625 2422.03125 1527.429688 2420.273438 1526.21875 2419.320312 C 1525 2418.363281 1523.238281 2418.585938 1522.289062 2419.8125 L 1488.078125 2463.375 L 1521.988281 2347.390625 C 1522.859375 2344.621094 1519.460938 2342.539062 1517.390625 2344.558594 C 1517.390625 2344.558594 1482.109375 2377.847656 1444.589844 2412.257812 C 1425.839844 2429.464844 1406.511719 2446.949219 1390.808594 2460.691406 C 1382.960938 2467.558594 1376.03125 2473.5 1370.519531 2477.980469 C 1367.929688 2480.089844 1367.019531 2480.53125 1365.121094 2481.933594 C 1367.039062 2478.648438 1368.941406 2475.371094 1372.398438 2470.253906 C 1381.839844 2456.332031 1396.140625 2436.789062 1410.988281 2416.992188 C 1440.691406 2377.398438 1472.621094 2336.660156 1472.621094 2336.660156 C 1473.050781 2336.109375 1473.25 2335.410156 1473.191406 2334.699219 L 1447.648438 2055.980469 C 1447.519531 2054.441406 1446.160156 2053.308594 1444.628906 2053.441406 Z M 1444.628906 2053.441406 "/>
<path fill-rule="nonzero" fill="rgb(70.117188%, 70.117188%, 70.117188%)" fill-opacity="1" d="M 1791.699219 2595.890625 C 1790.21875 2595.472656 1788.671875 2596.34375 1788.261719 2597.835938 C 1787.839844 2599.324219 1788.710938 2600.871094 1790.199219 2601.28125 C 1790.199219 2601.28125 1940.878906 2642.429688 2095.890625 2683.898438 C 2173.390625 2704.632812 2252 2725.445312 2313.390625 2741.222656 C 2344.089844 2749.113281 2370.488281 2755.726562 2390.320312 2760.46875 C 2410.148438 2765.207031 2422.980469 2768.070312 2428.140625 2768.425781 C 2463.089844 2770.839844 2484.398438 2767.839844 2484.398438 2767.839844 C 2485.921875 2767.625 2486.980469 2766.214844 2486.761719 2764.695312 C 2486.539062 2763.175781 2485.140625 2762.117188 2483.621094 2762.332031 C 2483.621094 2762.332031 2463.011719 2765.234375 2428.519531 2762.851562 C 2425 2762.609375 2411.378906 2759.789062 2391.609375 2755.066406 C 2371.828125 2750.339844 2345.46875 2743.714844 2314.789062 2735.828125 C 2253.421875 2720.058594 2174.851562 2699.242188 2097.359375 2678.507812 C 1942.359375 2637.046875 1791.699219 2595.890625 1791.699219 2595.890625 Z M 1791.699219 2595.890625 "/>
<path fill-rule="nonzero" fill="rgb(92.576599%, 92.576599%, 92.576599%)" fill-opacity="1" d="M 1447.648438 2055.980469 C 1447.648438 2055.980469 1531.101562 2233.511719 1574.710938 2246.878906 C 1618.308594 2260.25 1607.871094 2201.539062 1650.128906 2204.460938 C 1692.378906 2207.378906 1855.441406 2225.519531 1855.441406 2225.519531 L 1521.988281 2347.390625 C 1521.988281 2347.390625 1526.960938 2317.878906 1467.53125 2334.089844 Z M 1447.648438 2055.980469 "/>
<path fill-rule="nonzero" fill="rgb(92.576599%, 92.576599%, 92.576599%)" fill-opacity="1" d="M 2018.960938 2545.503906 C 2018.960938 2545.503906 2145.171875 2703.8125 2314.789062 2735.828125 L 1790.199219 2601.28125 L 1850.03125 2581.265625 Z M 2018.960938 2545.503906 "/>
<path fill-rule="nonzero" fill="rgb(30.200195%, 30.200195%, 30.200195%)" fill-opacity="1" d="M 1905.871094 497.71875 C 1901.019531 498.359375 1895.039062 499.78125 1888.210938 501.730469 C 1874.550781 505.648438 1857.640625 511.730469 1841.109375 518.121094 C 1808.058594 530.878906 1776.570312 544.859375 1776.570312 544.859375 C 1775.179688 545.480469 1774.550781 547.109375 1775.148438 548.511719 C 1775.769531 549.921875 1777.429688 550.558594 1778.839844 549.929688 C 1778.839844 549.929688 1810.230469 536.011719 1843.109375 523.308594 C 1859.558594 516.960938 1876.371094 510.941406 1889.730469 507.109375 C 1896.398438 505.199219 1902.25 503.828125 1906.609375 503.261719 C 1910.738281 502.71875 1913.171875 503.320312 1913.539062 503.449219 C 1913.441406 503.628906 1913.488281 503.648438 1913.140625 504.039062 C 1911.898438 505.429688 1909.070312 507.53125 1905.398438 509.71875 C 1898.058594 514.109375 1887.308594 519.21875 1877.5 524.050781 C 1867.691406 528.878906 1858.980469 533.160156 1854.601562 537.121094 C 1853.5 538.109375 1852.550781 539.089844 1852.058594 540.621094 C 1851.578125 542.160156 1852.359375 544.410156 1853.660156 545.390625 C 1856.261719 547.328125 1859.46875 547.441406 1865.050781 547.441406 C 1887.21875 547.480469 1928.539062 540.960938 1978.558594 543.03125 C 2028.578125 545.109375 2087.019531 555.691406 2142.570312 589.71875 C 2143.890625 590.53125 2145.609375 590.128906 2146.421875 588.820312 C 2147.230469 587.5 2146.808594 585.769531 2145.480469 584.96875 C 2088.878906 550.308594 2029.421875 539.589844 1978.789062 537.488281 C 1928.171875 535.390625 1886.109375 541.871094 1865.070312 541.851562 C 1860.898438 541.839844 1859.488281 541.328125 1858.609375 541.109375 C 1861.691406 538.421875 1870.320312 533.789062 1879.949219 529.058594 C 1889.71875 524.25 1900.480469 519.140625 1908.230469 514.5 C 1912.109375 512.179688 1915.230469 510.039062 1917.289062 507.75 C 1918.308594 506.601562 1919.171875 505.390625 1919.378906 503.710938 C 1919.589844 502.03125 1918.710938 500.128906 1917.410156 499.101562 C 1914.460938 496.769531 1910.710938 497.089844 1905.871094 497.71875 Z M 1905.871094 497.71875 "/>
<path fill-rule="nonzero" fill="rgb(30.200195%, 30.200195%, 30.200195%)" fill-opacity="1" d="M 1670.21875 616.609375 C 1669.46875 616.578125 1668.75 616.859375 1668.210938 617.371094 C 1668.210938 617.371094 1614.628906 667.878906 1619.941406 758.050781 C 1620.039062 759.578125 1621.351562 760.738281 1622.878906 760.648438 C 1624.429688 760.570312 1625.609375 759.25 1625.519531 757.699219 C 1620.351562 669.839844 1672.039062 621.421875 1672.039062 621.421875 C 1673.140625 620.371094 1673.199219 618.621094 1672.160156 617.5 C 1671.660156 616.960938 1670.960938 616.628906 1670.21875 616.609375 Z M 1670.21875 616.609375 "/>
<path fill-rule="nonzero" fill="rgb(10.205078%, 10.205078%, 10.205078%)" fill-opacity="1" d="M 1812.089844 798.089844 C 1799.609375 796.769531 1788.351562 799.511719 1779.140625 803.890625 C 1760.71875 812.640625 1749.691406 827.378906 1749.691406 827.378906 C 1748.148438 829.421875 1748.558594 832.328125 1750.589844 833.878906 C 1752.640625 835.421875 1755.539062 835.019531 1757.089844 832.980469 C 1757.089844 832.980469 1767.039062 819.898438 1783.109375 812.269531 C 1799.171875 804.640625 1820.53125 801.949219 1846.351562 823.808594 C 1848.308594 825.460938 1851.25 825.199219 1852.898438 823.238281 C 1854.550781 821.269531 1854.300781 818.339844 1852.328125 816.691406 C 1838.261719 804.78125 1824.570312 799.410156 1812.089844 798.089844 Z M 1812.089844 798.089844 "/>
<path fill-rule="nonzero" fill="rgb(10.205078%, 10.205078%, 10.205078%)" fill-opacity="1" d="M 2079.300781 783.429688 C 2067.089844 781.398438 2055.738281 783.789062 2046.390625 788.03125 C 2027.691406 796.5 2015.929688 811.628906 2015.929688 811.628906 C 2014.328125 813.640625 2014.660156 816.558594 2016.679688 818.160156 C 2018.691406 819.738281 2021.621094 819.390625 2023.199219 817.371094 C 2023.199219 817.371094 2034.019531 803.828125 2050.25 796.46875 C 2066.480469 789.121094 2087.160156 787.199219 2110.761719 811.75 C 2112.539062 813.601562 2115.480469 813.660156 2117.328125 811.871094 C 2119.179688 810.089844 2119.238281 807.148438 2117.460938 805.300781 C 2104.570312 791.890625 2091.5 785.449219 2079.300781 783.429688 Z M 2079.300781 783.429688 "/>
<path fill-rule="nonzero" fill="rgb(95.701599%, 21.166992%, 21.166992%)" fill-opacity="1" d="M 1105.121094 937.671875 C 1090.019531 936.738281 1074.609375 941.960938 1062.871094 953.378906 C 1040.769531 974.890625 1040.28125 1010 1061.789062 1032.101562 L 1070.828125 1041.390625 L 1148.949219 1121.679688 L 1237.359375 1052.898438 L 1247.601562 1044.941406 C 1271.941406 1026 1276.300781 991.160156 1257.359375 966.820312 C 1238.421875 942.480469 1203.578125 938.128906 1179.238281 957.058594 L 1159.25 972.621094 L 1141.589844 954.460938 C 1131.5 944.101562 1118.441406 938.488281 1105.121094 937.671875 Z M 1105.121094 937.671875 "/>
</svg>
